<?xml version="1.0" encoding="UTF-8"?>
<svg id="Layer_2" data-name="Layer 2" xmlns="http://www.w3.org/2000/svg" viewBox="0 0 193.61 161.38" fill='#fff'>
  <g id="Layer_1-2" data-name="Layer 1">
    <g>
      <path d="M112.61,18.87l-36.22,36.22,36.23,36.23,36.22-36.22L112.61,18.87Zm-17.83,36.22l17.83-17.83,17.84,17.84-17.83,17.83-17.84-17.84Z"/>
      <polygon points="131.44 148.38 131.44 103.84 184.87 50.41 175.68 41.22 118.44 98.46 118.44 161.38 193.61 161.38 193.61 148.38 131.44 148.38"/>
      <polygon points="67.69 39.59 83.46 39.59 97.94 25.12 88.74 15.92 78.08 26.59 71.56 26.59 71.56 19.65 82.01 9.19 72.82 0 58.56 14.27 58.56 30.34 30.19 58.7 14.47 58.7 0 73.18 9.19 82.37 19.86 71.7 26.38 71.7 26.38 78.64 15.92 89.1 25.12 98.29 39.38 84.03 39.38 67.9 48.16 59.12 92.89 103.84 92.89 148.38 30.72 148.38 30.72 161.38 105.89 161.38 105.89 98.46 57.35 49.92 67.69 39.59"/>
    </g>
  </g>
</svg>