<?xml version="1.0" encoding="UTF-8"?>
<svg id="Layer_2" data-name="Layer 2" xmlns="http://www.w3.org/2000/svg" viewBox="0 0 926.28 958.1">
  <defs>
    <style>
      .cls-1 {
        fill: #2ea479;
      }
    </style>
  </defs>
  <g id="Layer_1-2" data-name="Layer 1">
    <g>
      <path class="cls-1" d="M906.65,345.63c18.34-23.58-3.3-54.63-31.69-48.64-.26-20.44-35.83-28.28-49.23-13.7-43.34,49.13-101.38,60.18-161.49,63.76,108.79-111.63,46.06-309.79-102.3-340.52C542.05,1.54,522.75-.48,504.3,.09h0c-127.04,3.92-213.2,131-171.18,260.07-35.69-24.35-39.03-36.04-46.9-47.5l-3.68,13.21c-29.51-21.45-50.18-30.95-73.64-75.31-3.78-7.26-9.05-14.96-15.08-21.95-11.85-13.76-26.61-24.79-38.51-24.32-8.87,.34-16.17,7.05-19.54,23.71-28.7-10.53-70.4,3.38-46.38,47.74-35.44,27.93-23.17,58.91,28.34,66.95,14.15,3.51,113.27,50.32,152.97,97.34-93.62,40.83-130.98,130.5-41.46,183.66-10.21,17.48-22.7,30.36-22.7,30.36l25.96-6.43c-25.8,47.51-61.5,81.71-97.1,76.66-4.74,36.32-20.43,118.4-52.09,120.73-36.97-.48-91.31,3.37-82.3,37.86,17,22.67,136.84,43.84,184.27,51.95,10.16-4.06,36.35-57.79,49.42-78.17l5.21,14.34c4.93-16.8,34.1-42.13,47.99-44.49,44.53,30.58,97.23,50.96,151.72,44.8-20.92,36.18-36.41,75.34-45.04,116.27-82.25,19.22-167.58,26.54-251.98,29.95,.02,.63-.13,1.81-.17,2.42,88.39,11.86,178.42,7.91,265.8-10.04,21.57,14.35,187.72,71.1,192.92,37.98,3.15-41.78-55.47-45.89-74.05-73.85,158.1-55.21,209.45-204.27,19.11-254.22,3.67-19.66,9.25-39.04,17.69-56.85,4.42,4.95,10.13,11.74,13.02,15.08,0-4.98-.19-35.37-.25-49.97,4.02,2.91,8.65,5.93,11.26,7.81-1.51-22.31-7.82-52.35,8.59-69.93,39.24-21.12,177.5-25.77,191.87-31.35l-2.15,7.59c27.56-13.25,66.24-25.33,97.3-33.3,15.38-5.1,37.08-4.22,41.55-23.59,4.28-15.34-2.89-34.39-18.4-39.68ZM158.92,129.42c4.52-5.9,11.36,2.43,14.01,6.57,18.84,35.87-29.96,31.84-14.01-6.57Zm-36.98,82.55c-2.25,14.01-33.39,5.94-33.34-5.54,4.52-9.61,37.17-13.35,33.34,5.54Zm7.46-36.14v.06c-12.34,5.44-30.07-20.87-22.26-29.38,.09-.13,.18-.18,.24-.17,10.02-2.87,21.62,4.73,27.12,13.09v.06c3.43,6.1,1.72,11.61-5.1,16.32Zm71.23,62.81c-3.48,3.73-8.18,6.05-13.26,6.19q0,.06-.06,0c-26.64,1.53-68.79-48.96-29.9-59.94,25.63-4.88,63.09,28.62,43.22,53.76Zm84.98,142.44c-26.39,75.3-47.23,101.46-47.23,101.46l10.29-2.29c-2.16,6.47-4.43,12.37-6.79,17.97-68.62-42.93-28.6-101.39,43.47-133.73,1.84,6.02,2.01,11.58,.25,16.59Zm231.1,132.45l-11.12-12.83c.48,35.58-2.77,63.55-14.02,99.23l-7.3-17.94c-2.04,48.83-38.84,74.17-61.34,116.09-25.07-25.08-55.58-38.98-87.34-37.23v-.06c-4.91-6.45-12.16-27.56-4.47-40.28-10.96,2.19-21.39,10.33-28.36,18.22-5.03-46.42,2.32-78.96,23.08-107.39l-14.76,2.56,24.68-47.16-15.42,1.18c18.91-54.67,59.42-97.07,116.68-95.17,22.54,3.01,42.23,14.74,64.46,7.52-.99,7.85-10.14,10.26-16.75,11.44,37.62,18.07,40.24,52.89,31.98,101.83Zm-94.29-354.75c-27.58-55.2,23.01-70.74,53.97-25.6-11.49-1.6-43,15.83-53.97,25.6Zm57.42,21.44c18.96-7.43,21.74,18.08,6.23,24.91-18.65,7.98-24.82-18.28-6.23-24.91Zm133.67,504.63c74.25,61.26-18.49,125.18-83.44,156.77,14.18-36.45,39.52-69.61,68.93-95.07-16.62-11.87-30.42-28.42-40.14-46.53,6.04,.33,11.54-1.39,15.45-1.31-12.99-14.79-32.41-29.27-32.31-50.23,25.96,9.1,51.37,20.41,71.51,36.37Zm-72.01-369.61c-18.45,16.12-74.23-2.36-90.51-24.91-16.41-22.56,39.3-80.3,64.11-72.95,30.18,9.03,44.71,81.73,26.4,97.86Zm37.28-83.82c-15.98,9.09-26.89-17.78-15.13-26.88,14.81-9.39,27.11,20.68,15.13,26.88Zm26.18-57.5c-2.85-3.81-6.22-7.6-9.41-10.74,0-.06-.06-.07-.06-.07,.45-.2,.9-.4,1.35-.58,1.78-.77,3.58-1.45,5.4-2.08,3.86-1.31,7.83-2.33,11.84-2.92,.57-.07,1.12-.15,1.68-.22,.96-.1,1.94-.19,2.88-.25,1.47-.08,2.86-.1,4.28-.06,.16,0,.31,0,.46,.02,.46,.02,.94,.05,1.39,.08h.07c1.34,.1,2.65,.25,3.97,.5,.52,.07,1.02,.18,1.52,.3,.54,.11,1.08,.24,1.6,.39,.21,.06,.43,.11,.63,.18,.66,.17,1.33,.4,1.97,.63,.87,.3,1.73,.65,2.56,1.05,1.26,.58,2.48,1.24,3.62,2.01,.08,.05,.17,.1,.25,.17,2.32,1.55,4.36,3.5,5.96,5.76,0,0,0,0,0,0,.21,.31,.43,.62,.62,.94,.02,.02,.03,.04,.04,.06,.41,.64,.76,1.3,1.09,1.98,.18,.34,.33,.69,.47,1.05h0c.15,.36,.28,.71,.4,1.08,.14,.36,.25,.72,.35,1.09,.11,.36,.2,.73,.29,1.1,0,0,0,0,0,.02,.98,4.28,.55,8.67-.99,12.88-.12,.35-.26,.7-.41,1.06-.14,.35-.3,.7-.45,1.06h0c-.16,.36-.32,.71-.51,1.06-3.43,6.77-9.26,12.27-15.56,16.52-2.47,1.68-5.04,3.16-7.72,4.56-.87-4.95-2.91-10.53-5.42-15.73-3.77-7.96-8.92-15.86-13.99-22.59-.07-.1-.15-.19-.21-.29Zm19.72,174.84c-4.59,.14-9.1,.3-13.6,.38,10.35-22.82,18.53-59.62,16.47-96.54,5.31-38.57,58.09-59.19,31.95-96.79-24.71-35.8-63.57-31.47-85.77-6.72-21.58-13.05-50.56-19.21-75.33-15.54-2.36-22.72-35.14-56.2-75.76-41.13-45.65,16.95-5.99,82.53-19.76,107.22-16.64,24.65-27.25,52.36-31.68,76.58-2.68-.7-5.28-1.46-7.72-2.25C293.02,141.43,416.83-22.17,568.87,30.46c41.93,18.32,52.36,65.93,76.27,87.7,30.83,28.07,42.37,33.97,51.5,64.94,8.23,58.71-17.98,139.88-71.96,165.68Zm195.25,50.94c-8.48,2.85-18.9,3.86-26.88-.22-1.33-.57-2.66-1.48-3.89-2.47h-.06c-26.84-25.98,23.47-54.2,46.76-48.66,30.89,8.4,7.34,46.32-15.91,51.35Zm24.1-74.6c-5.51,5.96-20.03,1.28-16.69-9.15,2.76-8.25,15.28-22.71,23.36-17.74,4.15,5.73,.44,20.62-6.67,26.89Zm17.43,16.16c-4.46-12.1,20.09-27.56,30.24-21.18,6.03,11.97-18.64,42.31-30.24,21.18Zm15.86,25.26c8.87-5.27,29.38-2.32,30.84,9.57-6.45,14.96-47.19,11.81-30.84-9.57Z"/>
      <path class="cls-1" d="M499.6,292.29c2.89-.1,25.28-.21,29.81-8.49,.72-36.54-91.72-27.87-29.81,8.49Z"/>
      <path class="cls-1" d="M397.8,83.53c26.88-29.3,94.66-59.03,152.85-47.18-55.51-18.08-125.58-.27-152.85,47.18Z"/>
    </g>
  </g>
</svg>